<svg xmlns="http://www.w3.org/2000/svg" xmlns:xlink="http://www.w3.org/1999/xlink" xmlns:lucid="lucid" width="1681" height="1041"><g transform="translate(120.5 120.5)" lucid:page-tab-id="0_0"><path d="M-100-94a6 6 0 0 1 6-6h1628a6 6 0 0 1 6 6v988a6 6 0 0 1-6 6H-94a6 6 0 0 1-6-6z" stroke="#232f3e" fill="#fff" fill-opacity="0"/><path d="M-100-100h56v56h-56v-56z" stroke="#fff" stroke-opacity="0" fill="#232f3e"/><path d="M-81.78-74.13c-.04.48.05.87.17 1.34.1.4.28.7.48 1.08.04.1.08.2.08.33 0 .2-.12.36-.28.46l-.95.62c-.12.08-.25.13-.37.13-.16 0-.33-.06-.45-.2-.2-.2-.36-.43-.52-.7-.17-.25-.3-.53-.45-.86-1.1 1.37-2.63 2.1-4.4 2.06-1.15.06-2.13-.3-2.96-1.08-.78-.8-1.14-1.76-1.1-2.85-.05-1.23.4-2.28 1.35-3.08 1.07-.85 2.3-1.23 3.66-1.16.57 0 1.02.02 1.6.1.57.1 1.1.2 1.72.33v-1.1c.08-.88-.16-1.67-.7-2.37-.74-.56-1.56-.8-2.46-.7-.53 0-1.03.07-1.6.2-.58.13-1.03.3-1.6.5l-.5.2h-.24c-.2 0-.33-.16-.33-.45v-.75c0-.18.04-.34.12-.5.1-.16.24-.26.4-.33.66-.3 1.2-.5 1.9-.67.77-.2 1.47-.3 2.3-.28 1.47-.13 2.78.26 3.9 1.2.94 1.05 1.35 2.28 1.22 3.67zm-6.07 2.28c.57 0 1.06-.1 1.6-.28.57-.2 1.03-.5 1.44-.96h-.02c.25-.27.42-.57.5-.93.12-.45.16-.84.16-1.3V-76c-.53-.1-.94-.17-1.44-.2H-87c-.8-.08-1.55.12-2.2.58-.54.45-.8 1.04-.75 1.73-.04.62.13 1.16.54 1.6.44.38.97.52 1.55.45zm12 1.6c-.22.02-.42-.03-.6-.15-.15-.17-.23-.36-.32-.6l-3.5-11.5-.1-.62c0-.24.1-.37.36-.37h1.47c.2 0 .37.04.57.15.17.18.25.37.3.6l2.5 9.96 2.38-9.93c0-.24.08-.44.28-.6.17-.12.37-.16.58-.14h1.2c.24-.02.4.02.6.14.17.18.25.36.3.6l2.33 9.94 2.56-10c.04-.2.16-.4.33-.58.15-.1.36-.17.56-.14h1.4c.16 0 .33.1.37.3v.31s0 .2-.12.35L-66-71.02c-.05.22-.13.42-.3.6-.2.1-.37.14-.57.13h-1.27c-.25.04-.45-.02-.62-.15-.16-.16-.24-.36-.3-.6l-2.3-9.6-2.28 9.6c-.05.24-.13.44-.3.6-.2.13-.4.2-.6.16zm19.2.38c-.82 0-1.52-.07-2.3-.25-.65-.13-1.14-.3-1.72-.6-.2-.1-.37-.23-.45-.42-.08-.14-.12-.28-.12-.43v-.75c0-.3.12-.46.32-.46h.3l.36.16c.58.23 1.03.4 1.6.5.62.14 1.15.2 1.8.2.8.05 1.5-.1 2.2-.5.48-.3.77-.8.72-1.4.05-.4-.12-.76-.37-1.04-.46-.4-.95-.65-1.52-.8l-2.18-.67c-.95-.26-1.73-.74-2.38-1.5-.5-.66-.74-1.36-.74-2.2 0-.58.12-1.07.4-1.6.3-.5.63-.88 1.08-1.2.5-.4.98-.62 1.6-.8.66-.17 1.2-.25 1.9-.24.32-.03.6-.03.97 0l1 .16.8.23.67.25c.16.1.28.22.45.38.08.15.12.3.12.5v.7c0 .3-.12.47-.37.47-.2-.03-.37-.08-.57-.18-.95-.43-1.8-.6-2.88-.58-.7-.04-1.3.1-1.97.4-.5.3-.74.8-.7 1.36 0 .4.13.76.45 1.05.5.4 1 .65 1.6.82l2.1.67c.95.24 1.7.7 2.3 1.44.5.64.7 1.3.7 2.1 0 .63-.13 1.17-.37 1.73-.3.55-.62.95-1.1 1.32-.5.4-1 .66-1.6.84-.75.23-1.4.33-2.15.34zM-53.9-62.52c-5.6 3.82-11.36 5.58-18.15 5.56-8.54.05-15.82-2.74-22.16-8.45-.5-.42 0-1 .48-.68 7.07 4.05 14.03 5.9 22.2 5.9 6.1-.04 11.3-1.1 16.93-3.47.83-.35 1.52.55.7 1.13z" stroke="#fff" stroke-opacity="0" fill="#fff"/><path d="M-51.84-64.8c-.64-.8-4.16-.38-5.75-.2-.46 0-.53-.36-.1-.67 2.8-1.97 7.42-1.4 8-.73.6.67-.14 5.28-2.78 7.5-.4.32-.78.13-.6-.3.54-1.52 1.86-4.83 1.24-5.6z" stroke="#fff" stroke-opacity="0" fill="#fff"/><use xlink:href="#a" transform="matrix(1,0,0,1,-29,-80) translate(0 14.222222222222218)"/><use xlink:href="#b" transform="matrix(1,0,0,1,-29,-80) translate(45.33333333333332 14.222222222222218)"/><path d="M0 6a6 6 0 0 1 6-6h688a6 6 0 0 1 6 6v788a6 6 0 0 1-6 6H6a6 6 0 0 1-6-6z" fill="#fff" fill-opacity="0"/><path d="M.9 2.88l.25-.4.6-.72.72-.6.4-.26M4.6.18l.46-.1L6 0h1.5m2 0h2.98m2 0h3m1.98 0h3m2 0h2.98m2 0h2.98m2 0h3m1.98 0h3m2 0h2.98m2 0h2.98m2 0h3m1.98 0h3m2 0h2.98m2 0h3m1.98 0h3m2 0h2.98m2 0h2.98m2 0h3m1.98 0h3m2 0h2.98m2 0h3m1.98 0h3m2 0h2.98m2 0h2.98m2 0h3m1.98 0h3m2 0h2.98m2 0h2.98m2 0h3m1.98 0h3m2 0h2.98m2 0h3m1.98 0h3m2 0H172m2 0H177m2 0h3m1.98 0h3m2 0h2.98m2 0h2.98m2 0h3m2 0h2.98m2 0h2.98m2 0h3m1.98 0h3m2 0h2.98m2 0h2.98m2 0h3m1.98 0h3m2 0h2.98m2 0h3m1.98 0h3m2 0h2.98m2 0h2.98m2 0h3m1.98 0h3m2 0h2.98m2 0h2.98m2 0h3m1.98 0h3m2 0h2.98m2 0h3m1.98 0h3m2 0h2.98m2 0h2.98m2 0h3m1.98 0h3m2 0h2.98m2 0h2.98m2 0h3m1.98 0h3m2 0h2.98m2 0h3m1.98 0h3m2 0h2.98m2 0h2.98m2 0h3m1.98 0h3m2 0h2.98m2 0h3m1.98 0h3m2 0h2.98m2 0h2.98m2 0h3m1.98 0h3m2 0h2.98m2 0h2.98m2 0h3m1.98 0h3m2 0h2.98m2 0h3m1.98 0h3m2 0h2.98m2 0h2.98m2 0h3m1.98 0h3m2 0h2.98m2 0h2.98m2 0h3m1.98 0h3m2 0h2.98m2 0h3m1.98 0h3m2 0H516m2 0H521m2 0h3m1.98 0h3m2 0h2.98m2 0h3m1.98 0h3m1.98 0h3m2 0h2.98m2 0h3m1.98 0h3m2 0h2.98m2 0h2.98m2 0h3m1.98 0h3m2 0h2.98m2 0h3m1.98 0h3m2 0h2.98m2 0h2.98m2 0h3m1.98 0h3m2 0h2.98m2 0h2.98m2 0h3m1.98 0h3m2 0h2.98m2 0h3m1.98 0h3m2 0h2.98m2 0h2.98m2 0h3m1.98 0h3m2 0h2.98m2 0h3m1.98 0h3m1.98 0h1.5l.94.07.46.1m1.73.73l.4.25.7.6.62.72.25.4m.72 1.73l.1.46.08.94v1.5m0 2v2.98m0 2v3m0 2v2.98m0 2v3m0 1.98v3m0 2v2.98m0 2v3m0 1.98v3m0 2v2.98m0 2v3m0 1.98v3m0 2v2.98m0 2v3m0 2v2.98m0 2v3m0 1.98v3m0 2v2.98m0 2v3m0 1.98v3m0 2v2.98m0 2v3m0 1.98v3m0 2v2.98m0 2v3m0 2v2.98m0 2v3m0 1.98v3m0 2v2.98m0 2v3m0 1.98v3m0 2v2.98m0 2v3m0 2v2.98m0 2v3m0 1.98v3m0 2v2.98m0 2v3m0 1.98v3m0 2V202m0 2v3m0 2v2.98m0 2v3m0 1.98v3m0 2v2.98m0 2v3m0 1.98v3m0 2v2.98m0 2v3m0 1.98v3m0 2v2.98m0 2v3m0 2v2.98m0 2v3m0 1.98v3m0 2v2.98m0 2v3m0 1.98v3m0 2v2.98m0 2v3m0 1.98v3m0 2v2.98m0 2v3m0 2v2.98m0 2v3m0 1.98v3m0 2v2.98m0 2v3m0 1.98v3m0 2v2.98m0 2v3m0 2v2.98m0 2v2.98m0 2v3m0 2v2.98m0 2v3m0 1.98v3m0 2v2.98m0 2v3m0 1.98v3m0 2v2.98m0 2v3m0 2v2.98m0 2v3m0 1.98v3m0 2v2.98m0 2v3m0 1.98v3m0 2v2.98m0 2v3m0 2v2.98m0 2v2.98m0 2v3m0 2v2.98m0 2v3m0 1.98v3m0 2v2.98m0 2v3m0 1.98v3m0 2v2.98m0 2v3m0 2v2.98m0 2v3m0 1.98v3m0 2v2.98m0 2v3m0 1.98v3m0 2v2.98m0 2v3m0 1.98v3m0 2v2.98m0 2v3m0 2v2.98m0 2v3m0 1.98v3m0 2v2.98m0 2v3m0 1.98v3m0 2V596m0 2v3m0 2v2.98m0 2v3m0 1.98v3m0 2v2.98m0 2v3m0 1.98v3m0 2v2.98m0 2v3m0 1.98v3m0 2v2.98m0 2v3m0 2v2.98m0 2v3m0 1.98v3m0 2v2.98m0 2v3m0 1.98v3m0 2v2.98m0 2v3m0 1.98v3m0 2v2.98m0 2v3m0 2v2.98m0 2v3m0 1.98v3m0 2v2.98m0 2v3m0 1.98v3m0 2v2.98m0 2v3m0 2v2.98m0 2v3m0 1.98v3m0 2v2.98m0 2v3m0 1.98v3m0 2v2.98m0 2v3m0 1.98v1.5l-.07.94-.1.46m-.73 1.73l-.25.4-.6.7-.72.62-.4.25m-1.73.72l-.46.1-.94.08h-1.5m-2 0h-2.98m-2 0h-3m-1.98 0h-3m-2 0h-2.98m-2 0h-2.98m-2 0h-3m-1.98 0h-3m-2 0h-2.98m-2 0h-3m-1.98 0h-3m-2 0h-2.98m-2 0h-2.98m-2 0h-3m-1.98 0h-3m-2 0h-2.98m-2 0h-2.98m-2 0h-3m-1.98 0h-3m-2 0h-2.98m-2 0h-3m-1.98 0h-3m-2 0h-2.98m-2 0h-2.98m-2 0h-3m-1.98 0h-3m-2 0h-2.98m-2 0h-2.98m-2 0h-3m-1.98 0h-3m-2 0h-2.98m-2 0h-3m-1.98 0h-3m-2 0H528m-2 0H523m-2 0h-3m-1.98 0h-3m-2 0h-2.98m-2 0h-3m-1.98 0h-3m-2 0h-2.98m-2 0h-2.98m-2 0h-3m-1.98 0h-3m-2 0h-2.98m-2 0h-2.98m-2 0h-3m-1.98 0h-3m-2 0h-2.98m-2 0h-3m-1.98 0h-3m-2 0h-2.98m-2 0h-2.98m-2 0h-3m-1.98 0h-3m-2 0h-2.98m-2 0h-2.98m-2 0h-3m-1.98 0h-3m-2 0h-2.98m-2 0h-3m-1.98 0h-3m-2 0h-2.98m-2 0h-2.98m-2 0h-3m-1.98 0h-3m-2 0h-2.98m-2 0h-2.98m-2 0h-3m-1.98 0h-3m-2 0h-2.98m-2 0h-3m-1.98 0h-3m-2 0h-2.98m-2 0h-2.98m-2 0h-3m-1.98 0h-3m-2 0h-2.98m-2 0h-3m-1.98 0h-3m-2 0h-2.98m-2 0h-2.98m-2 0h-3m-1.98 0h-3m-2 0h-2.98m-2 0h-2.98m-2 0h-3m-1.98 0h-3m-2 0h-2.98m-2 0h-3m-1.98 0h-3m-2 0h-2.98m-2 0h-2.98m-2 0h-3m-1.98 0h-3m-2 0h-2.98m-2 0h-2.98m-2 0h-3m-1.98 0h-3m-2 0h-2.98m-2 0h-3m-1.98 0h-3m-2 0H184m-2 0H179m-2 0h-3m-1.98 0h-3m-2 0h-2.98m-2 0h-2.98m-2 0h-3m-2 0h-2.98m-2 0h-2.98m-2 0h-3m-1.98 0h-3m-2 0h-2.98m-2 0h-2.98m-2 0h-3m-1.98 0h-3m-2 0h-2.98m-2 0h-3m-1.98 0h-3m-1.98 0h-3m-2 0h-2.98m-2 0h-3m-1.98 0h-3m-2 0H74.3m-2 0h-2.98m-2 0h-3m-1.98 0h-3m-2 0h-2.98m-2 0h-3m-1.98 0h-3m-2 0H39.4m-2 0h-2.98m-2 0h-3m-1.98 0h-3m-2 0h-2.98m-2 0h-3m-1.98 0h-3m-1.98 0H6l-.94-.07-.46-.1m-1.72-.73l-.4-.25-.72-.6-.6-.72-.26-.4m-.72-1.73l-.1-.46L0 794v-1.5m0-2v-2.98m0-2v-3m0-2v-2.98m0-2v-3m0-1.98v-3m0-2v-2.98m0-2v-3m0-1.98v-3m0-2v-2.98m0-2v-3m0-2v-2.98m0-2v-2.98m0-2v-3m0-2v-2.98m0-2v-3m0-1.98v-3m0-2v-2.98m0-2v-3m0-1.98v-3m0-2v-2.98m0-2v-3m0-2v-2.98m0-2v-3m0-1.98v-3m0-2v-2.98m0-2v-3m0-1.98v-3m0-2v-2.98m0-2v-3m0-1.98v-3m0-2v-2.98m0-2v-3m0-2v-2.98m0-2v-3m0-1.98v-3m0-2v-2.98m0-2v-3M0 606v-3m0-2V598m0-2v-3m0-2v-2.98m0-2v-3m0-1.98v-3m0-2v-2.98m0-2v-3m0-1.98v-3m0-2v-2.98m0-2v-3m0-1.98v-3m0-2v-2.98m0-2v-3m0-2v-2.98m0-2v-3m0-1.98v-3m0-2v-2.98m0-2v-3m0-1.98v-3m0-2v-2.98m0-2v-3m0-1.98v-3m0-2v-2.98m0-2v-3m0-2v-2.98m0-2v-3m0-1.98v-3m0-2v-2.98m0-2v-3m0-1.98v-3m0-2v-2.98m0-2v-3m0-2v-2.98m0-2v-2.98m0-2v-3m0-2v-2.98m0-2v-3m0-1.98v-3m0-2v-2.98m0-2v-3m0-1.98v-3m0-2v-2.98m0-2v-3m0-2v-2.98m0-2v-3m0-1.98v-3m0-2v-2.98m0-2v-3m0-1.98v-3m0-2v-2.98m0-2v-3m0-2v-2.98m0-2v-2.98m0-2v-3m0-2v-2.98m0-2v-3m0-1.98v-3m0-2v-2.98m0-2v-3m0-1.98v-3m0-2v-2.98m0-2v-3m0-2v-2.98m0-2v-2.98m0-2v-3m0-2v-2.98m0-2v-3m0-1.98v-3m0-2v-2.98m0-2v-3m0-1.98v-3m0-2v-2.98m0-2v-3m0-2v-2.98m0-2v-3m0-1.98v-3m0-2v-2.98m0-2v-3M0 212v-3m0-2V204m0-2v-3m0-2v-2.98m0-2v-3m0-1.98v-3m0-2v-2.98m0-2v-3m0-1.98v-3m0-2v-2.98m0-2v-3m0-1.98v-3m0-2v-2.98m0-2v-3m0-2v-2.98m0-2v-2.98m0-2v-3m0-2v-2.98m0-2v-3m0-1.98v-3m0-2v-2.98m0-2v-3m0-1.98v-3m0-2V94.3m0-2v-3m0-2V84.3m0-2v-3m0-1.98v-3m0-2v-2.98m0-2v-3m0-1.98v-3m0-2V54.4m0-2v-3m0-1.98v-3m0-2v-2.98m0-2v-3m0-2v-2.98m0-2v-3m0-1.98v-3m0-2V14.5m0-2v-3M0 7.5V6l.07-.94.1-.46" stroke="#147eba" fill="none"/><path d="M0 0h56v56H0V0z" stroke="#fff" stroke-opacity="0" fill="#147eba"/><path d="M43.84 29.36L37.88 22l5.96-7.4H17.67V12.5c.98-.32 1.62-1.16 1.62-2.2-.1-1.15-1.03-2.02-2.17-2.14-1.3-.08-2.44.87-2.53 2.15 0 1.03.63 1.87 1.58 2.2V46.4h-4.02V48h9.44v-1.6h-3.93V29.37zM16.88 9.6c.4-.03.76.33.76.73 0 .44-.32.76-.73.76-.4.03-.75-.33-.75-.73v-.04c0-.4.32-.72.73-.72zm23.6 6.62L35.83 22l4.65 5.73h-22.8v-11.5z" stroke="#fff" stroke-opacity="0" fill="#fff"/><use xlink:href="#c" transform="matrix(1,0,0,1,71,20) translate(0 14.222222222222218)"/><path d="M760 6a6 6 0 0 1 6-6h668a6 6 0 0 1 6 6v788a6 6 0 0 1-6 6H766a6 6 0 0 1-6-6z" fill="#fff" fill-opacity="0"/><path d="M760.9 2.88l.25-.4.6-.72.72-.6.4-.26m1.73-.72l.46-.1L766 0h1.5m2 0h2.98m2 0h3m1.98 0h3m2 0h2.98m2 0h2.98m2 0h3m1.98 0h3m2 0h2.98m2 0h2.98m2 0h3m1.98 0h3m2 0h2.98m2 0h2.98m2 0h3m1.98 0h3m2 0h2.98m2 0h2.98m2 0h3m1.98 0h3m2 0h2.98m2 0h2.98m2 0h3m1.98 0h3m2 0h2.98m2 0h2.98m2 0h3m1.98 0h3m2 0h2.98m2 0h2.98m2 0h3m1.98 0h3m2 0H927m2 0H932m2 0h3m1.98 0h3m2 0h2.98m2 0h2.98m2 0h3m1.98 0h3m2 0h2.98m2 0h2.98m2 0h3m1.98 0h3m2 0h2.98m2 0h2.98m2 0h3m1.98 0h3m2 0h2.98m2 0h2.98m2 0h3m1.98 0h3m2 0h2.98m2 0h2.98m2 0h3m1.98 0h3m2 0h2.98m2 0h2.98m2 0h3m1.98 0h3m2 0h2.98m2 0h3m1.98 0h3m1.98 0h3m2 0h2.98m2 0h3m1.98 0h3m1.98 0h3m2 0h2.98m2 0h3m1.98 0h3m1.98 0h3m2 0h2.98m2 0h3m1.98 0h3m1.98 0h3m2 0h2.98m2 0h3m1.98 0h3m2 0h2.98m2 0h2.98m2 0h3m1.98 0h3m2 0h2.98m2 0h2.98m2 0h3m1.98 0h3m2 0h2.98m2 0h2.98m2 0h3m1.98 0h3m2 0h2.98m2 0h2.98m2 0h3m1.98 0h3m2 0h2.98m2 0h2.98m2 0h3m1.98 0h3m2 0h2.98m2 0h2.98m2 0h3m1.98 0h3m2 0h2.98m2 0h2.98m2 0h3m1.98 0h3m2 0h2.98m2 0h2.98m2 0h3m1.98 0h3m2 0h2.98m2 0h2.98m2 0h3m1.98 0h3m2 0h2.98m2 0h2.98m2 0h3m1.98 0h3m2 0h2.98m2 0h2.98m2 0h3m1.98 0h3m2 0h2.98m2 0h2.98m2 0h3m1.98 0h3m2 0h2.98m2 0h3m1.98 0h3m1.98 0h3m2 0h2.98m2 0h3m1.98 0h3m1.98 0h1.5l.94.07.46.1m1.72.73l.4.25.72.6.6.72.26.4m.72 1.73l.1.46.08.94v1.5m0 2v2.98m0 2v3m0 2v2.98m0 2v3m0 1.98v3m0 2v2.98m0 2v3m0 1.98v3m0 2v2.98m0 2v3m0 1.98v3m0 2v2.98m0 2v3m0 2v2.98m0 2v3m0 1.98v3m0 2v2.98m0 2v3m0 1.98v3m0 2v2.98m0 2v3m0 1.98v3m0 2v2.98m0 2v3m0 2v2.98m0 2v3m0 1.98v3m0 2v2.98m0 2v3m0 1.98v3m0 2v2.98m0 2v3m0 2v2.98m0 2v3m0 1.98v3m0 2v2.98m0 2v3m0 1.98v3m0 2V202m0 2v3m0 2v2.98m0 2v3m0 1.98v3m0 2v2.98m0 2v3m0 1.98v3m0 2v2.98m0 2v3m0 1.98v3m0 2v2.98m0 2v3m0 2v2.98m0 2v3m0 1.98v3m0 2v2.98m0 2v3m0 1.98v3m0 2v2.98m0 2v3m0 1.98v3m0 2v2.98m0 2v3m0 2v2.98m0 2v3m0 1.98v3m0 2v2.98m0 2v3m0 1.98v3m0 2v2.98m0 2v3m0 2v2.98m0 2v2.98m0 2v3m0 2v2.98m0 2v3m0 1.98v3m0 2v2.98m0 2v3m0 1.98v3m0 2v2.98m0 2v3m0 2v2.98m0 2v3m0 1.98v3m0 2v2.98m0 2v3m0 1.98v3m0 2v2.98m0 2v3m0 2v2.98m0 2v2.98m0 2v3m0 2v2.98m0 2v3m0 1.98v3m0 2v2.98m0 2v3m0 1.98v3m0 2v2.98m0 2v3m0 2v2.98m0 2v3m0 1.98v3m0 2v2.98m0 2v3m0 1.98v3m0 2v2.98m0 2v3m0 1.98v3m0 2v2.98m0 2v3m0 2v2.98m0 2v3m0 1.98v3m0 2v2.98m0 2v3m0 1.98v3m0 2V596m0 2v3m0 2v2.98m0 2v3m0 1.98v3m0 2v2.98m0 2v3m0 1.98v3m0 2v2.98m0 2v3m0 1.98v3m0 2v2.98m0 2v3m0 2v2.98m0 2v3m0 1.98v3m0 2v2.98m0 2v3m0 1.98v3m0 2v2.98m0 2v3m0 1.98v3m0 2v2.98m0 2v3m0 2v2.98m0 2v3m0 1.98v3m0 2v2.98m0 2v3m0 1.98v3m0 2v2.98m0 2v3m0 2v2.98m0 2v3m0 1.98v3m0 2v2.98m0 2v3m0 1.98v3m0 2v2.98m0 2v3m0 1.98v1.5l-.07.94-.1.46m-.73 1.73l-.25.4-.6.7-.72.62-.4.25m-1.73.72l-.46.1-.94.08h-1.5m-2 0h-2.98m-2 0h-3m-1.98 0h-3m-1.98 0h-3m-2 0h-2.98m-2 0h-3m-1.98 0h-3m-1.98 0h-3m-2 0h-2.98m-2 0h-3m-1.98 0h-3m-2 0h-2.98m-2 0h-2.98m-2 0h-3m-1.98 0h-3m-2 0h-2.98m-2 0h-2.98m-2 0h-3m-1.98 0h-3m-2 0h-2.98m-2 0h-2.98m-2 0h-3m-1.98 0h-3m-2 0h-2.98m-2 0h-2.98m-2 0h-3m-1.98 0h-3m-2 0h-2.98m-2 0h-2.98m-2 0h-3m-1.98 0h-3m-2 0H1273m-2 0H1268m-2 0h-3m-1.98 0h-3m-2 0h-2.98m-2 0h-2.98m-2 0h-3m-1.98 0h-3m-2 0h-2.98m-2 0h-2.98m-2 0h-3m-1.98 0h-3m-2 0h-2.98m-2 0h-2.98m-2 0h-3m-1.98 0h-3m-2 0h-2.98m-2 0h-2.98m-2 0h-3m-1.98 0h-3m-2 0h-2.98m-2 0h-2.98m-2 0h-3m-1.98 0h-3m-2 0h-2.98m-2 0h-2.98m-2 0h-3m-1.98 0h-3m-2 0h-2.98m-2 0h-3m-1.98 0h-3m-1.98 0h-3m-2 0h-2.98m-2 0h-3m-1.98 0h-3m-1.98 0h-3m-2 0h-2.98m-2 0h-3m-1.98 0h-3m-1.98 0h-3m-2 0h-2.98m-2 0h-3m-1.98 0h-3m-1.98 0h-3m-2 0h-2.98m-2 0h-3m-1.98 0h-3m-2 0h-2.98m-2 0h-2.98m-2 0h-3m-1.98 0h-3m-2 0h-2.98m-2 0h-2.98m-2 0h-3m-1.98 0h-3m-2 0h-2.98m-2 0h-2.98m-2 0h-3m-1.98 0h-3m-2 0h-2.98m-2 0h-2.98m-2 0h-3m-1.98 0h-3m-2 0h-2.98m-2 0h-2.98m-2 0h-3m-1.98 0h-3m-2 0H939m-2 0H934m-2 0h-3m-1.98 0h-3m-2 0h-2.98m-2 0h-2.98m-2 0h-3m-1.98 0h-3m-2 0h-2.98m-2 0h-2.98m-2 0h-3m-1.98 0h-3m-2 0h-2.98m-2 0h-2.98m-2 0h-3m-1.98 0h-3m-2 0h-2.98m-2 0h-2.98m-2 0h-3m-1.98 0h-3m-2 0h-2.98m-2 0h-2.98m-2 0h-3m-1.98 0h-3m-2 0h-2.98m-2 0h-3m-1.98 0h-3m-1.98 0h-3m-2 0h-2.98m-2 0h-3m-1.98 0h-3m-1.98 0h-3m-2 0h-2.98m-2 0h-3m-1.98 0h-3m-1.98 0H766l-.94-.07-.46-.1m-1.73-.73l-.4-.25-.7-.6-.62-.72-.25-.4m-.72-1.73l-.1-.46-.08-.94v-1.5m0-2v-2.98m0-2v-3m0-2v-2.98m0-2v-3m0-1.98v-3m0-2v-2.98m0-2v-3m0-1.98v-3m0-2v-2.98m0-2v-3m0-2v-2.98m0-2v-2.98m0-2v-3m0-2v-2.98m0-2v-3m0-1.98v-3m0-2v-2.98m0-2v-3m0-1.98v-3m0-2v-2.98m0-2v-3m0-2v-2.98m0-2v-3m0-1.98v-3m0-2v-2.98m0-2v-3m0-1.98v-3m0-2v-2.98m0-2v-3m0-1.98v-3m0-2v-2.98m0-2v-3m0-2v-2.98m0-2v-3m0-1.98v-3m0-2v-2.98m0-2v-3m0-1.98v-3m0-2V598m0-2v-3m0-2v-2.98m0-2v-3m0-1.98v-3m0-2v-2.98m0-2v-3m0-1.98v-3m0-2v-2.98m0-2v-3m0-1.98v-3m0-2v-2.98m0-2v-3m0-2v-2.98m0-2v-3m0-1.98v-3m0-2v-2.98m0-2v-3m0-1.98v-3m0-2v-2.98m0-2v-3m0-1.98v-3m0-2v-2.98m0-2v-3m0-2v-2.98m0-2v-3m0-1.98v-3m0-2v-2.98m0-2v-3m0-1.98v-3m0-2v-2.98m0-2v-3m0-2v-2.98m0-2v-2.98m0-2v-3m0-2v-2.98m0-2v-3m0-1.98v-3m0-2v-2.98m0-2v-3m0-1.98v-3m0-2v-2.98m0-2v-3m0-2v-2.98m0-2v-3m0-1.98v-3m0-2v-2.98m0-2v-3m0-1.98v-3m0-2v-2.98m0-2v-3m0-2v-2.98m0-2v-2.98m0-2v-3m0-2v-2.98m0-2v-3m0-1.98v-3m0-2v-2.98m0-2v-3m0-1.98v-3m0-2v-2.98m0-2v-3m0-2v-2.98m0-2v-2.98m0-2v-3m0-2v-2.98m0-2v-3m0-1.98v-3m0-2v-2.98m0-2v-3m0-1.98v-3m0-2v-2.98m0-2v-3m0-2v-2.98m0-2v-3m0-1.98v-3m0-2v-2.98m0-2v-3m0-1.98v-3m0-2V204m0-2v-3m0-2v-2.98m0-2v-3m0-1.98v-3m0-2v-2.98m0-2v-3m0-1.98v-3m0-2v-2.98m0-2v-3m0-1.98v-3m0-2v-2.98m0-2v-3m0-2v-2.98m0-2v-2.98m0-2v-3m0-2v-2.98m0-2v-3m0-1.98v-3m0-2v-2.98m0-2v-3m0-1.98v-3m0-2V94.3m0-2v-3m0-2V84.3m0-2v-3m0-1.98v-3m0-2v-2.98m0-2v-3m0-1.98v-3m0-2V54.4m0-2v-3m0-1.98v-3m0-2v-2.98m0-2v-3m0-2v-2.98m0-2v-3m0-1.98v-3m0-2V14.5m0-2v-3m0-1.98V6l.07-.94.1-.46" stroke="#147eba" fill="none"/><path d="M760 0h56v56h-56V0z" stroke="#fff" stroke-opacity="0" fill="#147eba"/><path d="M803.84 29.36L797.88 22l5.96-7.4h-26.17V12.5c.98-.32 1.62-1.16 1.62-2.2-.1-1.15-1.03-2.02-2.17-2.14-1.3-.08-2.44.87-2.53 2.15 0 1.03.63 1.87 1.58 2.2V46.4h-4.02V48h9.44v-1.6h-3.93V29.37zM776.88 9.6c.4-.03.76.33.76.73 0 .44-.32.76-.73.76-.4.03-.75-.33-.75-.73v-.04c0-.4.32-.72.73-.72zm23.6 6.62L795.83 22l4.65 5.73h-22.8v-11.5z" stroke="#fff" stroke-opacity="0" fill="#fff"/><use xlink:href="#c" transform="matrix(1,0,0,1,831,20) translate(0 14.222222222222218)"/><path d="M60 86a6 6 0 0 1 6-6h568a6 6 0 0 1 6 6v648a6 6 0 0 1-6 6H66a6 6 0 0 1-6-6z" stroke="#248814" fill="#fff" fill-opacity="0"/><path d="M60 80h56v56H60V80z" stroke="#fff" stroke-opacity="0" fill="#248814"/><path d="M91.76 108.3h-1.18v-1.1c-.12-1.73-1.47-3.07-3.2-3.2-1.9-.13-3.54 1.3-3.67 3.2v1.07h-1.17c-.45 0-.8.36-.8.8v6.13c0 .44.35.8.8.8h9.23c.44 0 .8-.36.8-.8v-6.1c0-.43-.36-.8-.8-.8zm-6.4-1.06c.1-1.02 1-1.77 2-1.67.9.08 1.58.77 1.67 1.67v1.06H85.3zm5.65 7.08h-7.67v-4.42h7.63z" stroke="#fff" stroke-opacity="0" fill="#fff"/><path d="M102.27 105.75c-.08-2.45-1.58-4.48-3.87-5.3-1.58-.47-3.16-.14-4.4.9-.68-1.45-1.47-2.6-2.6-3.76-3.24-3.36-7.94-4.3-12.18-2.4-4.04 1.9-6.4 5.63-6.54 10.05v.7c-3.4.97-5.66 4.08-5.5 7.65v.63c.38 4.28 3.92 7.52 8.2 7.47h26s7.42-.64 7.42-8.1c.04-3.9-2.66-7.2-6.53-7.85zm-.96 14.38H75.4c-3.47.06-6.3-2.52-6.6-5.96v-.52c-.15-3.05 1.93-5.7 4.92-6.3.38-.12.63-.48.6-.9-.06-.4-.06-.73 0-1.14.07-3.78 2.1-6.94 5.52-8.6 1.25-.56 2.4-.8 3.83-.84 2.62.08 4.87 1.04 6.7 2.94 1.25 1.3 2.04 2.6 2.62 4.3.03.15.1.28.24.37.37.27.87.2 1.12-.17.83-1.18 2.25-1.67 3.62-1.3 1.8.72 2.87 2.4 2.83 4.32-.07.4.22.83.64.9 3.58.36 6.2 3.55 5.82 7.12-.3 3.13-2.7 5.52-5.82 5.85z" stroke="#fff" stroke-opacity="0" fill="#fff"/><use xlink:href="#d" transform="matrix(1,0,0,1,131,100) translate(0 14.222222222222218)"/><path d="M800 86a6 6 0 0 1 6-6h568a6 6 0 0 1 6 6v648a6 6 0 0 1-6 6H806a6 6 0 0 1-6-6z" stroke="#248814" fill="#fff" fill-opacity="0"/><path d="M800 80h56v56h-56V80z" stroke="#fff" stroke-opacity="0" fill="#248814"/><path d="M831.76 108.3h-1.18v-1.1c-.12-1.73-1.48-3.07-3.2-3.2-1.9-.13-3.54 1.3-3.67 3.2v1.07h-1.17c-.44 0-.8.36-.8.8v6.13c0 .44.36.8.8.8h9.23c.44 0 .8-.36.8-.8v-6.1c0-.43-.36-.8-.8-.8zm-6.4-1.06c.1-1.02 1-1.77 2-1.67.9.08 1.58.77 1.67 1.67v1.06h-3.72zm5.65 7.08h-7.67v-4.42h7.63z" stroke="#fff" stroke-opacity="0" fill="#fff"/><path d="M842.27 105.75c-.1-2.45-1.58-4.48-3.87-5.3-1.58-.47-3.16-.14-4.4.9-.68-1.45-1.47-2.6-2.6-3.76-3.24-3.36-7.94-4.3-12.18-2.4-4.04 1.9-6.4 5.63-6.54 10.05v.7c-3.4.97-5.66 4.08-5.5 7.65v.63c.4 4.28 3.92 7.52 8.2 7.47h26s7.42-.64 7.42-8.1c.04-3.9-2.66-7.2-6.53-7.85zm-.96 14.38h-25.9c-3.47.06-6.3-2.52-6.6-5.96v-.52c-.15-3.05 1.93-5.7 4.92-6.3.38-.12.63-.48.6-.9-.06-.4-.06-.73 0-1.14.07-3.78 2.1-6.94 5.52-8.6 1.25-.56 2.4-.8 3.83-.84 2.62.08 4.87 1.04 6.7 2.94 1.25 1.3 2.04 2.6 2.62 4.3.03.15.1.28.24.37.37.27.87.2 1.12-.17.83-1.18 2.25-1.67 3.62-1.3 1.8.72 2.87 2.4 2.83 4.32-.07.4.22.83.64.9 3.57.36 6.2 3.55 5.82 7.12-.3 3.13-2.7 5.52-5.82 5.85z" stroke="#fff" stroke-opacity="0" fill="#fff"/><use xlink:href="#d" transform="matrix(1,0,0,1,871,100) translate(0 14.222222222222218)"/><path d="M100 186a6 6 0 0 1 6-6h492.9a6 6 0 0 1 6 6v188a6 6 0 0 1-6 6H106a6 6 0 0 1-6-6z" fill="#248814" fill-opacity=".13"/><path d="M100 180h56v56h-56v-56z" stroke="#fff" stroke-opacity="0" fill="#248814"/><path d="M143.38 202.18c-.15-.17-.34-.25-.56-.25h-5.15v-5.58c-.03-2.54-.96-4.7-2.84-6.4-1.9-1.83-4.15-2.75-6.77-2.75-2.65 0-4.9.83-6.8 2.62-1.9 1.7-2.87 3.87-2.9 6.4v5.66h-5.15c-.24 0-.43.1-.58.25-.16.17-.22.34-.22.6V228c0 .43.34.8.8.8h29.6c.46 0 .8-.37.8-.8v-25.28c0-.2-.06-.38-.22-.54zm-23.46-5.9c.03-2.13.8-3.88 2.37-5.3 1.6-1.5 3.52-2.2 5.73-2.2 2.22 0 4.12.75 5.7 2.25 1.54 1.4 2.32 3.2 2.32 5.32v5.58H119.9zm22.1 30.94h-28.03v-23.7h28z" stroke="#fff" stroke-opacity="0" fill="#fff"/><path d="M127.2 217.3v6.25h1.6v-6.23c2.13-.4 3.62-2.2 3.63-4.35 0-2.43-1.97-4.4-4.4-4.43-2.2-.03-4.06 1.5-4.44 3.68-.42 2.4 1.2 4.68 3.6 5.1zm.82-7.15c.78 0 1.44.27 2 .82.54.56.82 1.22.8 2 .03 1.55-1.2 2.8-2.74 2.82h-.06c-1.56.1-2.92-1.06-3.04-2.62-.12-1.56 1.05-2.93 2.6-3.03.16-.02.28-.02.44 0z" stroke="#fff" stroke-opacity="0" fill="#fff"/><use xlink:href="#e" transform="matrix(1,0,0,1,171,200) translate(0 14.222222222222218)"/><use xlink:href="#f" transform="matrix(1,0,0,1,171,200) translate(58.17283950617282 14.222222222222218)"/><path d="M837.54 186a6 6 0 0 1 6-6h492.92a6 6 0 0 1 6 6v188a6 6 0 0 1-6 6H843.54a6 6 0 0 1-6-6z" fill="#248814" fill-opacity=".13"/><path d="M837.54 180h56v56h-56v-56z" stroke="#fff" stroke-opacity="0" fill="#248814"/><path d="M880.93 202.18c-.16-.17-.35-.25-.57-.25h-5.14v-5.58c-.04-2.54-.97-4.7-2.84-6.4-1.9-1.83-4.15-2.75-6.77-2.75-2.64 0-4.9.83-6.8 2.62-1.9 1.7-2.87 3.87-2.9 6.4v5.66h-5.14c-.25 0-.44.1-.6.25-.15.17-.22.34-.22.6V228c0 .43.35.8.8.8h29.6c.46 0 .8-.37.8-.8v-25.28c0-.2-.06-.38-.2-.54zm-23.47-5.9c.03-2.13.8-3.88 2.38-5.3 1.62-1.5 3.52-2.2 5.74-2.2 2.2 0 4.1.75 5.7 2.25 1.53 1.4 2.3 3.2 2.3 5.32v5.58h-16.15zm22.1 30.94h-28.02v-23.7h28z" stroke="#fff" stroke-opacity="0" fill="#fff"/><path d="M864.74 217.3v6.25h1.6v-6.23c2.13-.4 3.63-2.2 3.64-4.35 0-2.43-1.98-4.4-4.42-4.43-2.2-.03-4.05 1.5-4.42 3.68-.4 2.4 1.2 4.68 3.6 5.1zm.82-7.15c.78 0 1.44.27 2 .82.55.56.82 1.22.8 2 .03 1.55-1.2 2.8-2.74 2.82h-.06c-1.56.1-2.92-1.06-3.04-2.62-.1-1.56 1.06-2.93 2.6-3.03.16-.02.3-.02.44 0z" stroke="#fff" stroke-opacity="0" fill="#fff"/><use xlink:href="#g" transform="matrix(1,0,0,1,908.5439716312057,200) translate(0 14.222222222222218)"/><use xlink:href="#h" transform="matrix(1,0,0,1,908.5439716312057,200) translate(58.17283950617282 14.222222222222218)"/><path d="M100 426a6 6 0 0 1 6-6h492.9a6 6 0 0 1 6 6v268a6 6 0 0 1-6 6H106a6 6 0 0 1-6-6z" fill="#147eba" fill-opacity=".13"/><path d="M100 420h56v56h-56v-56z" stroke="#fff" stroke-opacity="0" fill="#147eba"/><path d="M143.38 442.18c-.15-.17-.34-.25-.56-.25h-5.15v-5.58c-.03-2.54-.96-4.7-2.84-6.4-1.9-1.83-4.15-2.75-6.77-2.75-2.65 0-4.9.83-6.8 2.62-1.9 1.7-2.87 3.87-2.9 6.4v5.66h-5.15c-.24 0-.43.1-.58.25-.16.17-.22.34-.22.6V468c0 .43.34.8.8.8h29.6c.46 0 .8-.37.8-.8v-25.28c0-.2-.06-.38-.22-.54zm-23.46-5.9c.03-2.13.8-3.88 2.37-5.3 1.6-1.5 3.52-2.2 5.73-2.2 2.22 0 4.12.75 5.7 2.25 1.54 1.4 2.32 3.2 2.32 5.32v5.58H119.9zm22.1 30.94h-28.03v-23.7h28z" stroke="#fff" stroke-opacity="0" fill="#fff"/><path d="M127.2 457.3v6.25h1.6v-6.23c2.13-.4 3.62-2.2 3.63-4.35 0-2.43-1.97-4.4-4.4-4.43-2.2-.03-4.06 1.5-4.44 3.68-.42 2.4 1.2 4.68 3.6 5.1zm.82-7.15c.78 0 1.44.27 2 .83.54.55.82 1.2.8 2 .03 1.54-1.2 2.8-2.74 2.8h-.06c-1.56.13-2.92-1.04-3.04-2.6-.12-1.56 1.05-2.93 2.6-3.03.16-.02.28-.02.44 0z" stroke="#fff" stroke-opacity="0" fill="#fff"/><use xlink:href="#i" transform="matrix(1,0,0,1,171,440) translate(0 14.222222222222218)"/><use xlink:href="#j" transform="matrix(1,0,0,1,171,440) translate(64.14814814814812 14.222222222222218)"/><path d="M837.54 426a6 6 0 0 1 6-6h492.92a6 6 0 0 1 6 6v268a6 6 0 0 1-6 6H843.54a6 6 0 0 1-6-6z" fill="#147eba" fill-opacity=".13"/><path d="M837.54 420h56v56h-56v-56z" stroke="#fff" stroke-opacity="0" fill="#147eba"/><path d="M880.93 442.18c-.16-.17-.35-.25-.57-.25h-5.14v-5.58c-.04-2.54-.97-4.7-2.84-6.4-1.9-1.83-4.15-2.75-6.77-2.75-2.64 0-4.9.83-6.8 2.62-1.9 1.7-2.87 3.87-2.9 6.4v5.66h-5.14c-.25 0-.44.1-.6.25-.15.17-.22.34-.22.6V468c0 .43.35.8.8.8h29.6c.46 0 .8-.37.8-.8v-25.28c0-.2-.06-.38-.2-.54zm-23.47-5.9c.03-2.13.8-3.88 2.38-5.3 1.62-1.5 3.52-2.2 5.74-2.2 2.2 0 4.1.75 5.7 2.25 1.53 1.4 2.3 3.2 2.3 5.32v5.58h-16.15zm22.1 30.94h-28.02v-23.7h28z" stroke="#fff" stroke-opacity="0" fill="#fff"/><path d="M864.74 457.3v6.25h1.6v-6.23c2.13-.4 3.63-2.2 3.64-4.35 0-2.43-1.98-4.4-4.42-4.43-2.2-.03-4.05 1.5-4.42 3.68-.4 2.4 1.2 4.68 3.6 5.1zm.82-7.15c.78 0 1.44.27 2 .83.55.55.82 1.2.8 2 .03 1.54-1.2 2.8-2.74 2.8h-.06c-1.56.13-2.92-1.04-3.04-2.6-.1-1.56 1.06-2.93 2.6-3.03.16-.02.3-.02.44 0z" stroke="#fff" stroke-opacity="0" fill="#fff"/><use xlink:href="#i" transform="matrix(1,0,0,1,908.5439716312057,440) translate(0 14.222222222222218)"/><use xlink:href="#j" transform="matrix(1,0,0,1,908.5439716312057,440) translate(64.14814814814812 14.222222222222218)"/><path d="M160 500h120v120H160V500z" stroke="#fff" stroke-opacity="0" stroke-width="2" fill="#3f8624"/><path d="M183.2 525.45l11.66 11.7 2.28-2.3-11.7-11.65h8.95V520h-12.8c-.88 0-1.6.72-1.6 1.6v12.8h3.2zM258.4 520h-12.8v3.2h8.95l-11.7 11.66 2.3 2.28 11.65-11.7v8.95h3.2v-12.8c0-.88-.72-1.6-1.6-1.6zM194.86 582.86l-11.66 11.7v-8.95H180v12.8c0 .88.72 1.6 1.6 1.6h12.8v-3.2h-8.95l11.7-11.66zM256.8 594.55l-11.66-11.7-2.28 2.3 11.7 11.65h-8.95v3.2h12.8c.88 0 1.6-.72 1.6-1.6v-12.8h-3.2zM207.35 537.2c5.93-2.63 12.53-1.34 17 3.33 2 2.04 3.3 4.17 4.2 6.88.15.28.28.55.56.73.7.53 1.73.4 2.2-.32 1.04-1.4 2.56-2.2 4.28-2.2 2.48 0 5.44 1.86 5.78 7.2 0 .7.55 1.32 1.24 1.46 6.27 1.33 9.43 4.8 9.43 10.22 0 5.15-2.27 8.22-6.95 9.37l.76 3.1c6.06-1.45 9.36-5.9 9.36-12.47 0-6.53-3.8-11.2-10.74-13.07-.83-6.2-4.96-9-8.88-9-1.86-.05-3.44.48-4.96 1.6-1.03-2.27-2.27-4.05-4.06-5.83-5.37-5.6-13.28-7.15-20.44-4-6.6 3.1-10.67 9.3-10.8 16.62v.88c-5.6 1.78-9.17 6.84-8.96 12.66v.94c.34 5.5 3.78 10 9.1 11.73l1.02-3c-4-1.3-6.6-4.72-6.95-8.9v-.76c-.2-4.84 3.1-9.06 7.9-9.95.7-.2 1.18-.85 1.18-1.6-.06-.68-.13-1.2-.13-1.88.14-6.04 3.45-11.1 8.88-13.73z" stroke="#fff" stroke-opacity="0" stroke-width="2" fill="#fff"/><path d="M245.5 568.52c.2-.5.1-1.03-.22-1.46-.28-.42-.74-.66-1.3-.66h-4.78c-.18-1.43-.74-2.62-1.8-3.62-.8-.82-1.77-1.22-2.93-1.2h-16.43c-.42-1.26-1.2-2.9-2.46-3.18H208.9c-1.44 0-2.37 1.8-2.88 3.2h-1.9c-1.2-.04-2.23.33-3.06 1.15-1.2 1.2-1.86 2.7-1.86 4.44v20c0 .87.7 1.6 1.58 1.6h36.8c.74 0 1.3-.43 1.53-1.1zm-3.75 1.07l-2.55 7.74v-7.75zm-5.75 16h-33.6v-18.4c0-.8.23-1.5.8-2.08.18-.25.46-.34.73-.3h3.2c.84 0 1.54-.67 1.58-1.53.2-.6.43-1.13.7-1.7h5.16c.28.54.46 1.03.6 1.6 0 .88.75 1.6 1.63 1.6h17.7c.25 0 .48.1.62.32.6.58.88 1.27.88 2.07z" stroke="#fff" stroke-opacity="0" stroke-width="2" fill="#fff"/><use xlink:href="#k" transform="matrix(1,0,0,1,130,629) translate(6.6666666666667 14.222222222222218)"/><use xlink:href="#l" transform="matrix(1,0,0,1,130,629) translate(80.5925925925926 14.222222222222218)"/><use xlink:href="#m" transform="matrix(1,0,0,1,130,629) translate(142.76543209876542 14.222222222222218)"/><use xlink:href="#n" transform="matrix(1,0,0,1,130,629) translate(58.41975308641977 35.55555555555554)"/><path d="M1180 500h120v120h-120V500z" stroke="#fff" stroke-opacity="0" stroke-width="2" fill="#3f8624"/><path d="M1203.2 525.45l11.66 11.7 2.28-2.3-11.7-11.65h8.95V520h-12.8c-.88 0-1.6.72-1.6 1.6v12.8h3.2zM1278.4 520h-12.8v3.2h8.95l-11.7 11.66 2.3 2.28 11.65-11.7v8.95h3.2v-12.8c0-.88-.72-1.6-1.6-1.6zM1214.86 582.86l-11.66 11.7v-8.95h-3.2v12.8c0 .88.72 1.6 1.6 1.6h12.8v-3.2h-8.95l11.7-11.66zM1276.8 594.55l-11.66-11.7-2.28 2.3 11.7 11.65h-8.95v3.2h12.8c.88 0 1.6-.72 1.6-1.6v-12.8h-3.2zM1227.36 537.2c5.92-2.63 12.52-1.34 17 3.33 2 2.04 3.3 4.17 4.2 6.88.14.28.27.55.55.73.7.53 1.73.4 2.2-.32 1.05-1.4 2.56-2.2 4.28-2.2 2.48 0 5.44 1.86 5.78 7.2 0 .7.55 1.32 1.24 1.46 6.27 1.33 9.43 4.8 9.43 10.22 0 5.15-2.27 8.22-6.95 9.37l.76 3.1c6.06-1.45 9.36-5.9 9.36-12.47 0-6.53-3.8-11.2-10.74-13.07-.83-6.2-4.96-9-8.88-9-1.86-.05-3.44.48-4.96 1.6-1.03-2.27-2.27-4.05-4.06-5.83-5.37-5.6-13.28-7.15-20.44-4-6.6 3.1-10.67 9.3-10.8 16.62v.88c-5.6 1.78-9.17 6.84-8.96 12.66v.94c.34 5.5 3.8 10 9.1 11.73l1.02-3c-4-1.3-6.6-4.72-6.95-8.9v-.76c-.2-4.84 3.1-9.06 7.9-9.95.7-.2 1.18-.85 1.18-1.6-.06-.68-.13-1.2-.13-1.88.14-6.04 3.45-11.1 8.88-13.73z" stroke="#fff" stroke-opacity="0" stroke-width="2" fill="#fff"/><path d="M1265.5 568.52c.2-.5.1-1.03-.22-1.46-.28-.42-.74-.66-1.3-.66h-4.78c-.18-1.43-.74-2.62-1.8-3.62-.8-.82-1.77-1.22-2.93-1.2h-16.43c-.42-1.26-1.2-2.9-2.46-3.18H1228.9c-1.44 0-2.37 1.8-2.88 3.2h-1.9c-1.2-.04-2.23.33-3.06 1.15-1.2 1.2-1.86 2.7-1.86 4.44v20c0 .87.7 1.6 1.58 1.6h36.8c.74 0 1.3-.43 1.53-1.1zm-3.75 1.07l-2.55 7.74v-7.75zm-5.75 16h-33.6v-18.4c0-.8.23-1.5.8-2.08.18-.25.45-.34.73-.3h3.2c.84 0 1.54-.67 1.58-1.53.2-.6.43-1.13.7-1.7h5.16c.28.54.46 1.03.6 1.6 0 .88.75 1.6 1.63 1.6h17.72c.23 0 .46.1.6.32.6.58.88 1.27.88 2.07z" stroke="#fff" stroke-opacity="0" stroke-width="2" fill="#fff"/><use xlink:href="#k" transform="matrix(1,0,0,1,1150,629) translate(6.6666666666667 14.222222222222218)"/><use xlink:href="#l" transform="matrix(1,0,0,1,1150,629) translate(80.5925925925926 14.222222222222218)"/><use xlink:href="#m" transform="matrix(1,0,0,1,1150,629) translate(142.76543209876542 14.222222222222218)"/><use xlink:href="#n" transform="matrix(1,0,0,1,1150,629) translate(58.41975308641977 35.55555555555554)"/><path d="M380 500h120v120H380V500z" stroke="#fff" stroke-opacity="0" fill="#1c7b68"/><path d="M427.38 568.9h-4.42v-3.13h4.42zm-6.75-3.13H405.5v3.13h15.13zm31.02 17.78h-17.6v3.07h17.6zm-21.25.2h-4.5v3.06h4.5zm-15.74 7.44c.54-.26.85-.83.85-1.4v-3h7.46v-3.06h-9c-.93 0-1.63.7-1.63 1.56v1.26l-7.13-5.76 7.2-5.76v1.25c0 .87.7 1.62 1.64 1.62h23.73v2.88c.08.3.16.56.3.8.56.76 1.56.9 2.26.4l11.17-8.96c.08-.07.15-.13.23-.13.54-.68.47-1.68-.23-2.3l-11.17-8.96c-.23-.18-.54-.25-.85-.3-.86 0-1.63.62-1.7 1.55v2.87h-7.38v3.13h8.92c.93 0 1.63-.75 1.63-1.62v-1.25l7.2 5.75-7.2 5.76v-1.3c0-.9-.7-1.58-1.63-1.58h-23.8v-2.8c0-.33-.16-.58-.32-.83-.46-.75-1.47-.94-2.17-.44l-11.25 9c-.07 0-.07.07-.15.13-.54.7-.47 1.7.15 2.26l11.25 9c.23.2.54.3.93.3.23 0 .47 0 .7-.1zm64.14-28.62c0-7.57-4.9-13.4-11.63-14.15-.55-6.44-5.12-10.45-11.87-10.45h-.23c-3.8-6.07-9.93-9.4-17.07-9.26-10.47 0-19.15 8-19.93 18.52-7.9.76-13.88 7.33-13.88 15.28h3.1c0-6.76 5.5-12.27 12.25-12.27.93 0 1.62-.75 1.62-1.63 0-9.26 7.53-16.77 16.83-16.84 6.3-.12 11.7 2.95 14.82 8.45.3.5.77.75 1.4.82h1.08c5.58 0 8.84 3.25 8.84 8.82 0 .88.7 1.57 1.63 1.57 5.66 0 10 4.82 10 11.14-.07 6.76-5.5 12.27-12.33 12.27h-10.16v3.13h10.16c8.46 0 15.36-6.95 15.36-15.46z" stroke="#fff" stroke-opacity="0" fill="#fff"/><use xlink:href="#a" transform="matrix(1,0,0,1,350,629) translate(26.913580246913597 14.222222222222218)"/><use xlink:href="#o" transform="matrix(1,0,0,1,350,629) translate(72.24691358024691 14.222222222222218)"/><use xlink:href="#p" transform="matrix(1,0,0,1,350,629) translate(90 35.55555555555554)"/><path d="M980 500h120v120H980V500z" stroke="#fff" stroke-opacity="0" fill="#1c7b68"/><path d="M1027.38 568.9h-4.42v-3.13h4.42zm-6.75-3.13h-15.12v3.13h15.13zm31.02 17.78h-17.6v3.07h17.6zm-21.25.2h-4.5v3.06h4.5zm-15.74 7.44c.54-.26.85-.83.85-1.4v-3h7.46v-3.06h-9c-.93 0-1.63.7-1.63 1.56v1.26l-7.13-5.76 7.2-5.76v1.25c0 .87.7 1.62 1.64 1.62h23.73v2.88c.08.3.16.56.3.8.56.76 1.56.9 2.26.4l11.17-8.96c.08-.07.15-.13.23-.13.55-.68.47-1.68-.23-2.3l-11.17-8.96c-.23-.18-.54-.25-.85-.3-.86 0-1.63.62-1.7 1.55v2.87h-7.38v3.13h8.92c.93 0 1.63-.75 1.63-1.62v-1.25l7.2 5.75-7.2 5.76v-1.3c0-.9-.7-1.58-1.63-1.58h-23.8v-2.8c0-.33-.16-.58-.32-.83-.46-.75-1.47-.94-2.17-.44l-11.25 9c-.07 0-.07.07-.15.13-.54.7-.47 1.7.15 2.26l11.25 9c.23.2.54.3.93.3.23 0 .47 0 .7-.1zm64.14-28.62c0-7.57-4.9-13.4-11.63-14.15-.55-6.44-5.12-10.45-11.87-10.45h-.23c-3.8-6.07-9.93-9.4-17.07-9.26-10.47 0-19.15 8-19.93 18.52-7.9.76-13.88 7.33-13.88 15.28h3.1c0-6.76 5.5-12.27 12.25-12.27.93 0 1.62-.75 1.62-1.63 0-9.26 7.53-16.77 16.83-16.84 6.3-.12 11.7 2.95 14.82 8.45.3.5.77.75 1.4.82h1.08c5.58 0 8.84 3.25 8.84 8.82 0 .88.7 1.57 1.63 1.57 5.66 0 10 4.82 10 11.14-.07 6.76-5.5 12.27-12.33 12.27h-10.16v3.13h10.16c8.46 0 15.36-6.95 15.36-15.46z" stroke="#fff" stroke-opacity="0" fill="#fff"/><use xlink:href="#a" transform="matrix(1,0,0,1,950,629) translate(26.913580246913597 14.222222222222218)"/><use xlink:href="#o" transform="matrix(1,0,0,1,950,629) translate(72.24691358024691 14.222222222222218)"/><use xlink:href="#p" transform="matrix(1,0,0,1,950,629) translate(90 35.55555555555554)"/><path d="M280.5 560h99" stroke="#3a414a" fill="none"/><path d="M280.5 560.5h-.5v-1h.5zM380 560.5h-.5v-1h.5z" stroke="#3a414a" stroke-width=".05" fill="#3a414a"/><path d="M500.5 560h479" stroke="#3a414a" fill="none"/><path d="M500.5 560.5h-.5v-1h.5zM980 560.5h-.5v-1h.5z" stroke="#3a414a" stroke-width=".05" fill="#3a414a"/><path d="M1100.5 560h79" stroke="#3a414a" fill="none"/><path d="M1100.5 560.5h-.5v-1h.5zM1180 560.5h-.5v-1h.5z" stroke="#3a414a" stroke-width=".05" fill="#3a414a"/><path d="M380 220c33.12 0 60 26.88 60 60 0 33.12-26.88 60-60 60-33.12 0-60-26.88-60-60 0-33.12 26.88-60 60-60zm0 114.6c30.12 0 54.6-24.48 54.6-54.6s-24.48-54.6-54.6-54.6-54.6 24.48-54.6 54.6 24.48 54.6 54.6 54.6zm47.28-54.12c1.08 1.08 1.08 2.76 0 3.84l-12 11.88c-.48.6-1.2.84-1.92.84-.36 0-.6 0-.96-.24-1.08-.36-1.68-1.32-1.68-2.52v-9.12h-20.88v25.92c0 1.44-1.2 2.64-2.64 2.64h-21v-5.4h18.24v-23.16h-18.72v-5.52h18.72v-23.16H366.2v-5.4h21c1.44 0 2.64 1.2 2.64 2.64v25.92h20.88v-9.24c0-1.08.6-2.04 1.68-2.52.96-.36 2.16-.12 2.88.6zm-76.56-9.72l11.88 9.48c.6.48 1.08 1.32 1.08 2.16 0 .84-.48 1.56-1.08 2.16l-11.88 9.48c-.48.36-1.08.6-1.8.6-.36 0-.72-.12-1.08-.24-.96-.48-1.56-1.44-1.56-2.52V272.8c0-.96.6-1.92 1.56-2.4.84-.48 2.04-.36 2.88.36zm0 26.16l11.88 9.6c.6.48 1.08 1.32 1.08 2.16 0 .84-.48 1.56-1.08 2.04l-11.88 9.6c-.48.36-1.08.6-1.8.6-.36 0-.72-.12-1.08-.24-.96-.48-1.56-1.44-1.56-2.52v-19.08c0-1.08.6-2.04 1.56-2.4.84-.48 2.04-.36 2.88.24zm0-54.84l11.88 9.6c.6.48 1.08 1.2 1.08 2.04 0 .84-.48 1.68-1.08 2.16l-11.88 9.6c-.48.36-1.08.6-1.8.6-.36 0-.72-.12-1.08-.36-.96-.48-1.56-1.32-1.56-2.4v-19.08c0-1.08.6-2.04 1.56-2.52.84-.48 2.04-.36 2.88.36zm65.4 45.6l5.4-5.28-5.4-5.4zm-64.44-1.44l4.92-3.84-4.92-3.84zm0-28.56l4.92-3.96-4.92-3.84zm0 54.84l4.92-3.84-4.92-3.96z" stroke="#000" stroke-opacity="0" fill="#4d27aa"/><g><use xlink:href="#q" transform="matrix(1,0,0,1,290,349) translate(12.765432098765444 14.222222222222221)"/><use xlink:href="#r" transform="matrix(1,0,0,1,290,349) translate(54.19753086419754 14.222222222222221)"/><use xlink:href="#s" transform="matrix(1,0,0,1,290,349) translate(94.19753086419753 14.222222222222221)"/></g><path d="M1120 220c33.12 0 60 26.88 60 60 0 33.12-26.88 60-60 60-33.12 0-60-26.88-60-60 0-33.12 26.88-60 60-60zm0 114.6c30.12 0 54.6-24.48 54.6-54.6s-24.48-54.6-54.6-54.6-54.6 24.48-54.6 54.6 24.48 54.6 54.6 54.6zm47.28-54.12c1.08 1.08 1.08 2.76 0 3.84l-12 11.88c-.48.6-1.2.84-1.92.84-.36 0-.6 0-.96-.24-1.08-.36-1.68-1.32-1.68-2.52v-9.12h-20.88v25.92c0 1.44-1.2 2.64-2.64 2.64h-21v-5.4h18.24v-23.16h-18.72v-5.52h18.72v-23.16h-18.24v-5.4h21c1.44 0 2.64 1.2 2.64 2.64v25.92h20.88v-9.24c0-1.08.6-2.04 1.68-2.52.96-.36 2.16-.12 2.88.6zm-76.56-9.72l11.88 9.48c.6.48 1.08 1.32 1.08 2.16 0 .84-.48 1.56-1.08 2.16l-11.88 9.48c-.48.36-1.08.6-1.8.6-.36 0-.72-.12-1.08-.24-.96-.48-1.56-1.44-1.56-2.52V272.8c0-.96.6-1.92 1.56-2.4.84-.48 2.04-.36 2.88.36zm0 26.16l11.88 9.6c.6.48 1.08 1.32 1.08 2.16 0 .84-.48 1.56-1.08 2.04l-11.88 9.6c-.48.36-1.08.6-1.8.6-.36 0-.72-.12-1.08-.24-.96-.48-1.56-1.44-1.56-2.52v-19.08c0-1.08.6-2.04 1.56-2.4.84-.48 2.04-.36 2.88.24zm0-54.84l11.88 9.6c.6.48 1.08 1.2 1.08 2.04 0 .84-.48 1.68-1.08 2.16l-11.88 9.6c-.48.36-1.08.6-1.8.6-.36 0-.72-.12-1.08-.36-.96-.48-1.56-1.32-1.56-2.4v-19.08c0-1.08.6-2.04 1.56-2.52.84-.48 2.04-.36 2.88.36zm65.4 45.6l5.4-5.28-5.4-5.4zm-64.44-1.44l4.92-3.84-4.92-3.84zm0-28.56l4.92-3.96-4.92-3.84zm0 54.84l4.92-3.84-4.92-3.96z" stroke="#000" stroke-opacity="0" fill="#4d27aa"/><g><use xlink:href="#q" transform="matrix(1,0,0,1,1030,349) translate(12.765432098765444 14.222222222222221)"/><use xlink:href="#r" transform="matrix(1,0,0,1,1030,349) translate(54.19753086419754 14.222222222222221)"/><use xlink:href="#s" transform="matrix(1,0,0,1,1030,349) translate(94.19753086419753 14.222222222222221)"/></g><path d="M380 80c-22.08 0-40-17.92-40-40s17.92-40 40-40 40 17.92 40 40-17.92 40-40 40zm0-76.56c-20.24 0-36.56 16.32-36.56 36.56 0 20.24 16.32 36.56 36.56 36.56 20.24 0 36.56-16.32 36.56-36.56 0-20.24-16.32-36.56-36.56-36.56z" stroke="#fff" stroke-opacity="0" fill="#693cc5"/><path d="M399.14 64.03h-6.38c-.96 0-1.7-.75-1.7-1.7v-33c-3.47-1.8-6.76-2.6-10.64-2.7-4.26.1-7.8 1.04-11.55 3.07v32.63c0 .95-.75 1.7-1.67 1.7h-6.34c-.96 0-1.7-.75-1.7-1.7V25.2c0-.5.2-.93.57-1.26 6.1-5 12.85-7.32 20.7-7.13 7.4-.14 13.8 1.94 19.75 6.33.46.34.67.8.67 1.33v37.87c0 .95-.75 1.7-1.7 1.7zm-4.67-3.4h2.96V25.3c-5.2-3.58-10.67-5.2-17-5.1-6.73-.18-12.52 1.7-17.86 5.77v34.66h2.92V28.6c0-.65.32-1.2.9-1.5 4.5-2.55 8.85-3.78 14.02-3.87 4.7.14 8.7 1.18 12.88 3.4h.17c.63.28 1 .85 1 1.56z" stroke="#fff" stroke-opacity="0" fill="#693cc5"/><g><use xlink:href="#t" transform="matrix(1,0,0,1,310,89) translate(0.024691358024711008 14.222222222222221)"/><use xlink:href="#u" transform="matrix(1,0,0,1,310,89) translate(69.95061728395062 14.222222222222221)"/></g><path d="M1120 80c-22.08 0-40-17.92-40-40s17.92-40 40-40 40 17.92 40 40-17.92 40-40 40zm0-76.56c-20.24 0-36.56 16.32-36.56 36.56 0 20.24 16.32 36.56 36.56 36.56 20.24 0 36.56-16.32 36.56-36.56 0-20.24-16.32-36.56-36.56-36.56z" stroke="#fff" stroke-opacity="0" fill="#693cc5"/><path d="M1139.14 64.03h-6.38c-.96 0-1.7-.75-1.7-1.7v-33c-3.47-1.8-6.76-2.6-10.64-2.7-4.26.1-7.8 1.04-11.55 3.07v32.63c0 .95-.75 1.7-1.67 1.7h-6.34c-.96 0-1.7-.75-1.7-1.7V25.2c0-.5.2-.93.57-1.26 6.1-5 12.85-7.32 20.7-7.13 7.4-.14 13.8 1.94 19.75 6.33.46.34.67.8.67 1.33v37.87c0 .95-.75 1.7-1.7 1.7zm-4.67-3.4h2.96V25.3c-5.2-3.58-10.67-5.2-17-5.1-6.73-.18-12.52 1.7-17.86 5.77v34.66h2.92V28.6c0-.65.32-1.2.9-1.5 4.5-2.55 8.85-3.78 14.02-3.87 4.7.14 8.7 1.18 12.88 3.4h.17c.63.28 1 .85 1 1.56z" stroke="#fff" stroke-opacity="0" fill="#693cc5"/><g><use xlink:href="#t" transform="matrix(1,0,0,1,1050,89) translate(0.024691358024711008 14.222222222222221)"/><use xlink:href="#u" transform="matrix(1,0,0,1,1050,89) translate(69.95061728395062 14.222222222222221)"/></g><path d="M500 526a6 6 0 0 1 6-6h111.54a6 6 0 0 1 6 6v28a6 6 0 0 1-6 6H506a6 6 0 0 1-6-6z" fill="none"/><g><use xlink:href="#v" transform="matrix(1,0,0,1,500,520) translate(32.91358024691359 23.555555555555557)"/></g><defs><path fill="#3a414a" d="M199 0l-22-63H83L61 0H9l90-248h61L250 0h-51zm-33-102l-36-108c-10 38-24 72-36 108h72" id="w"/><path fill="#3a414a" d="M275 0h-61l-44-196L126 0H64L0-248h53L97-49l45-199h58l43 199 44-199h52" id="x"/><path fill="#3a414a" d="M169-182c-1-43-94-46-97-3 18 66 151 10 154 114 3 95-165 93-204 36-6-8-10-19-12-30l50-8c3 46 112 56 116 5-17-69-150-10-154-114-4-87 153-88 188-35 5 8 8 18 10 28" id="y"/><g id="a"><use transform="matrix(0.0493827160493827,0,0,0.0493827160493827,0,0)" xlink:href="#w"/><use transform="matrix(0.0493827160493827,0,0,0.0493827160493827,11.802469135802466,0)" xlink:href="#x"/><use transform="matrix(0.0493827160493827,0,0,0.0493827160493827,28.5432098765432,0)" xlink:href="#y"/></g><path fill="#3a414a" d="M67-125c0 53 21 87 73 88 37 1 54-22 65-47l45 17C233-25 199 4 140 4 58 4 20-42 15-125 8-235 124-281 211-232c18 10 29 29 36 50l-46 12c-8-25-30-41-62-41-52 0-71 34-72 86" id="z"/><path fill="#3a414a" d="M25 0v-261h50V0H25" id="A"/><path fill="#3a414a" d="M110-194c64 0 96 36 96 99 0 64-35 99-97 99-61 0-95-36-95-99 0-62 34-99 96-99zm-1 164c35 0 45-28 45-65 0-40-10-65-43-65-34 0-45 26-45 65 0 36 10 65 43 65" id="B"/><path fill="#3a414a" d="M85 4C-2 5 27-109 22-190h50c7 57-23 150 33 157 60-5 35-97 40-157h50l1 190h-47c-2-12 1-28-3-38-12 25-28 42-61 42" id="C"/><path fill="#3a414a" d="M88-194c31-1 46 15 58 34l-1-101h50l1 261h-48c-2-10 0-23-3-31C134-8 116 4 84 4 32 4 16-41 15-95c0-56 19-97 73-99zm17 164c33 0 40-30 41-66 1-37-9-64-41-64s-38 30-39 65c0 43 13 65 39 65" id="D"/><g id="b"><use transform="matrix(0.0493827160493827,0,0,0.0493827160493827,0,0)" xlink:href="#z"/><use transform="matrix(0.0493827160493827,0,0,0.0493827160493827,12.79012345679012,0)" xlink:href="#A"/><use transform="matrix(0.0493827160493827,0,0,0.0493827160493827,17.72839506172839,0)" xlink:href="#B"/><use transform="matrix(0.0493827160493827,0,0,0.0493827160493827,28.5432098765432,0)" xlink:href="#C"/><use transform="matrix(0.0493827160493827,0,0,0.0493827160493827,39.35802469135801,0)" xlink:href="#D"/></g><path fill="#147eba" d="M240-174c0 40-23 61-54 70L253 0h-59l-57-94H76V0H24v-248c93 4 217-23 216 74zM76-134c48-2 112 12 112-38 0-48-66-32-112-35v73" id="E"/><path fill="#147eba" d="M185-48c-13 30-37 53-82 52C43 2 14-33 14-96s30-98 90-98c62 0 83 45 84 108H66c0 31 8 55 39 56 18 0 30-7 34-22zm-45-69c5-46-57-63-70-21-2 6-4 13-4 21h74" id="F"/><path fill="#147eba" d="M195-6C206 82 75 100 31 46c-4-6-6-13-8-21l49-6c3 16 16 24 34 25 40 0 42-37 40-79-11 22-30 35-61 35-53 0-70-43-70-97 0-56 18-96 73-97 30 0 46 14 59 34l2-30h47zm-90-29c32 0 41-27 41-63 0-35-9-62-40-62-32 0-39 29-40 63 0 36 9 62 39 62" id="G"/><path fill="#147eba" d="M25-224v-37h50v37H25zM25 0v-190h50V0H25" id="H"/><path fill="#147eba" d="M110-194c64 0 96 36 96 99 0 64-35 99-97 99-61 0-95-36-95-99 0-62 34-99 96-99zm-1 164c35 0 45-28 45-65 0-40-10-65-43-65-34 0-45 26-45 65 0 36 10 65 43 65" id="I"/><path fill="#147eba" d="M135-194c87-1 58 113 63 194h-50c-7-57 23-157-34-157-59 0-34 97-39 157H25l-1-190h47c2 12-1 28 3 38 12-26 28-41 61-42" id="J"/><g id="c"><use transform="matrix(0.0493827160493827,0,0,0.0493827160493827,0,0)" xlink:href="#E"/><use transform="matrix(0.0493827160493827,0,0,0.0493827160493827,12.79012345679012,0)" xlink:href="#F"/><use transform="matrix(0.0493827160493827,0,0,0.0493827160493827,22.666666666666657,0)" xlink:href="#G"/><use transform="matrix(0.0493827160493827,0,0,0.0493827160493827,33.48148148148147,0)" xlink:href="#H"/><use transform="matrix(0.0493827160493827,0,0,0.0493827160493827,38.41975308641974,0)" xlink:href="#I"/><use transform="matrix(0.0493827160493827,0,0,0.0493827160493827,49.23456790123455,0)" xlink:href="#J"/></g><path fill="#248814" d="M147 0H94L2-248h55l64 206c17-72 42-137 63-206h54" id="K"/><path fill="#248814" d="M24-248c93 1 206-16 204 79-1 75-69 88-152 82V0H24v-248zm52 121c47 0 100 7 100-41 0-47-54-39-100-39v80" id="L"/><path fill="#248814" d="M67-125c0 53 21 87 73 88 37 1 54-22 65-47l45 17C233-25 199 4 140 4 58 4 20-42 15-125 8-235 124-281 211-232c18 10 29 29 36 50l-46 12c-8-25-30-41-62-41-52 0-71 34-72 86" id="M"/><g id="d"><use transform="matrix(0.0493827160493827,0,0,0.0493827160493827,0,0)" xlink:href="#K"/><use transform="matrix(0.0493827160493827,0,0,0.0493827160493827,11.851851851851848,0)" xlink:href="#L"/><use transform="matrix(0.0493827160493827,0,0,0.0493827160493827,23.703703703703695,0)" xlink:href="#M"/></g><path fill="#3f8624" d="M24-248c93 1 206-16 204 79-1 75-69 88-152 82V0H24v-248zm52 121c47 0 100 7 100-41 0-47-54-39-100-39v80" id="N"/><path fill="#3f8624" d="M85 4C-2 5 27-109 22-190h50c7 57-23 150 33 157 60-5 35-97 40-157h50l1 190h-47c-2-12 1-28-3-38-12 25-28 42-61 42" id="O"/><path fill="#3f8624" d="M135-194c52 0 70 43 70 98 0 56-19 99-73 100-30 1-46-15-58-35L72 0H24l1-261h50v104c11-23 29-37 60-37zM114-30c31 0 40-27 40-66 0-37-7-63-39-63s-41 28-41 65c0 36 8 64 40 64" id="P"/><path fill="#3f8624" d="M25 0v-261h50V0H25" id="Q"/><path fill="#3f8624" d="M25-224v-37h50v37H25zM25 0v-190h50V0H25" id="R"/><path fill="#3f8624" d="M190-63c-7 42-38 67-86 67-59 0-84-38-90-98-12-110 154-137 174-36l-49 2c-2-19-15-32-35-32-30 0-35 28-38 64-6 74 65 87 74 30" id="S"/><g id="e"><use transform="matrix(0.0493827160493827,0,0,0.0493827160493827,0,0)" xlink:href="#N"/><use transform="matrix(0.0493827160493827,0,0,0.0493827160493827,11.851851851851848,0)" xlink:href="#O"/><use transform="matrix(0.0493827160493827,0,0,0.0493827160493827,22.666666666666657,0)" xlink:href="#P"/><use transform="matrix(0.0493827160493827,0,0,0.0493827160493827,33.48148148148147,0)" xlink:href="#Q"/><use transform="matrix(0.0493827160493827,0,0,0.0493827160493827,38.41975308641974,0)" xlink:href="#R"/><use transform="matrix(0.0493827160493827,0,0,0.0493827160493827,43.35802469135801,0)" xlink:href="#S"/></g><path fill="#3f8624" d="M169-182c-1-43-94-46-97-3 18 66 151 10 154 114 3 95-165 93-204 36-6-8-10-19-12-30l50-8c3 46 112 56 116 5-17-69-150-10-154-114-4-87 153-88 188-35 5 8 8 18 10 28" id="T"/><path fill="#3f8624" d="M135-194c87-1 58 113 63 194h-50c-7-57 23-157-34-157-59 0-34 97-39 157H25l-1-190h47c2 12-1 28 3 38 12-26 28-41 61-42" id="U"/><path fill="#3f8624" d="M185-48c-13 30-37 53-82 52C43 2 14-33 14-96s30-98 90-98c62 0 83 45 84 108H66c0 31 8 55 39 56 18 0 30-7 34-22zm-45-69c5-46-57-63-70-21-2 6-4 13-4 21h74" id="V"/><path fill="#3f8624" d="M115-3C79 11 28 4 28-45v-112H4v-33h27l15-45h31v45h36v33H77v99c-1 23 16 31 38 25v30" id="W"/><g id="f"><use transform="matrix(0.0493827160493827,0,0,0.0493827160493827,0,0)" xlink:href="#T"/><use transform="matrix(0.0493827160493827,0,0,0.0493827160493827,11.851851851851848,0)" xlink:href="#O"/><use transform="matrix(0.0493827160493827,0,0,0.0493827160493827,22.666666666666657,0)" xlink:href="#P"/><use transform="matrix(0.0493827160493827,0,0,0.0493827160493827,33.48148148148147,0)" xlink:href="#U"/><use transform="matrix(0.0493827160493827,0,0,0.0493827160493827,44.296296296296276,0)" xlink:href="#V"/><use transform="matrix(0.0493827160493827,0,0,0.0493827160493827,54.17283950617281,0)" xlink:href="#W"/></g><path fill="#1c7b68" d="M24-248c93 1 206-16 204 79-1 75-69 88-152 82V0H24v-248zm52 121c47 0 100 7 100-41 0-47-54-39-100-39v80" id="X"/><path fill="#1c7b68" d="M85 4C-2 5 27-109 22-190h50c7 57-23 150 33 157 60-5 35-97 40-157h50l1 190h-47c-2-12 1-28-3-38-12 25-28 42-61 42" id="Y"/><path fill="#1c7b68" d="M135-194c52 0 70 43 70 98 0 56-19 99-73 100-30 1-46-15-58-35L72 0H24l1-261h50v104c11-23 29-37 60-37zM114-30c31 0 40-27 40-66 0-37-7-63-39-63s-41 28-41 65c0 36 8 64 40 64" id="Z"/><path fill="#1c7b68" d="M25 0v-261h50V0H25" id="aa"/><path fill="#1c7b68" d="M25-224v-37h50v37H25zM25 0v-190h50V0H25" id="ab"/><path fill="#1c7b68" d="M190-63c-7 42-38 67-86 67-59 0-84-38-90-98-12-110 154-137 174-36l-49 2c-2-19-15-32-35-32-30 0-35 28-38 64-6 74 65 87 74 30" id="ac"/><g id="g"><use transform="matrix(0.0493827160493827,0,0,0.0493827160493827,0,0)" xlink:href="#X"/><use transform="matrix(0.0493827160493827,0,0,0.0493827160493827,11.851851851851848,0)" xlink:href="#Y"/><use transform="matrix(0.0493827160493827,0,0,0.0493827160493827,22.666666666666657,0)" xlink:href="#Z"/><use transform="matrix(0.0493827160493827,0,0,0.0493827160493827,33.48148148148147,0)" xlink:href="#aa"/><use transform="matrix(0.0493827160493827,0,0,0.0493827160493827,38.41975308641974,0)" xlink:href="#ab"/><use transform="matrix(0.0493827160493827,0,0,0.0493827160493827,43.35802469135801,0)" xlink:href="#ac"/></g><path fill="#1c7b68" d="M169-182c-1-43-94-46-97-3 18 66 151 10 154 114 3 95-165 93-204 36-6-8-10-19-12-30l50-8c3 46 112 56 116 5-17-69-150-10-154-114-4-87 153-88 188-35 5 8 8 18 10 28" id="ad"/><path fill="#1c7b68" d="M135-194c87-1 58 113 63 194h-50c-7-57 23-157-34-157-59 0-34 97-39 157H25l-1-190h47c2 12-1 28 3 38 12-26 28-41 61-42" id="ae"/><path fill="#1c7b68" d="M185-48c-13 30-37 53-82 52C43 2 14-33 14-96s30-98 90-98c62 0 83 45 84 108H66c0 31 8 55 39 56 18 0 30-7 34-22zm-45-69c5-46-57-63-70-21-2 6-4 13-4 21h74" id="af"/><path fill="#1c7b68" d="M115-3C79 11 28 4 28-45v-112H4v-33h27l15-45h31v45h36v33H77v99c-1 23 16 31 38 25v30" id="ag"/><g id="h"><use transform="matrix(0.0493827160493827,0,0,0.0493827160493827,0,0)" xlink:href="#ad"/><use transform="matrix(0.0493827160493827,0,0,0.0493827160493827,11.851851851851848,0)" xlink:href="#Y"/><use transform="matrix(0.0493827160493827,0,0,0.0493827160493827,22.666666666666657,0)" xlink:href="#Z"/><use transform="matrix(0.0493827160493827,0,0,0.0493827160493827,33.48148148148147,0)" xlink:href="#ae"/><use transform="matrix(0.0493827160493827,0,0,0.0493827160493827,44.296296296296276,0)" xlink:href="#af"/><use transform="matrix(0.0493827160493827,0,0,0.0493827160493827,54.17283950617281,0)" xlink:href="#ag"/></g><path fill="#147eba" d="M24-248c93 1 206-16 204 79-1 75-69 88-152 82V0H24v-248zm52 121c47 0 100 7 100-41 0-47-54-39-100-39v80" id="ah"/><path fill="#147eba" d="M135-150c-39-12-60 13-60 57V0H25l-1-190h47c2 13-1 29 3 40 6-28 27-53 61-41v41" id="ai"/><path fill="#147eba" d="M128 0H69L1-190h53L99-40l48-150h52" id="aj"/><path fill="#147eba" d="M133-34C117-15 103 5 69 4 32 3 11-16 11-54c-1-60 55-63 116-61 1-26-3-47-28-47-18 1-26 9-28 27l-52-2c7-38 36-58 82-57s74 22 75 68l1 82c-1 14 12 18 25 15v27c-30 8-71 5-69-32zm-48 3c29 0 43-24 42-57-32 0-66-3-65 30 0 17 8 27 23 27" id="ak"/><path fill="#147eba" d="M115-3C79 11 28 4 28-45v-112H4v-33h27l15-45h31v45h36v33H77v99c-1 23 16 31 38 25v30" id="al"/><g id="i"><use transform="matrix(0.0493827160493827,0,0,0.0493827160493827,0,0)" xlink:href="#ah"/><use transform="matrix(0.0493827160493827,0,0,0.0493827160493827,11.851851851851848,0)" xlink:href="#ai"/><use transform="matrix(0.0493827160493827,0,0,0.0493827160493827,18.765432098765427,0)" xlink:href="#H"/><use transform="matrix(0.0493827160493827,0,0,0.0493827160493827,23.703703703703695,0)" xlink:href="#aj"/><use transform="matrix(0.0493827160493827,0,0,0.0493827160493827,33.58024691358023,0)" xlink:href="#ak"/><use transform="matrix(0.0493827160493827,0,0,0.0493827160493827,43.45679012345677,0)" xlink:href="#al"/><use transform="matrix(0.0493827160493827,0,0,0.0493827160493827,49.333333333333314,0)" xlink:href="#F"/></g><path fill="#147eba" d="M169-182c-1-43-94-46-97-3 18 66 151 10 154 114 3 95-165 93-204 36-6-8-10-19-12-30l50-8c3 46 112 56 116 5-17-69-150-10-154-114-4-87 153-88 188-35 5 8 8 18 10 28" id="am"/><path fill="#147eba" d="M85 4C-2 5 27-109 22-190h50c7 57-23 150 33 157 60-5 35-97 40-157h50l1 190h-47c-2-12 1-28-3-38-12 25-28 42-61 42" id="an"/><path fill="#147eba" d="M135-194c52 0 70 43 70 98 0 56-19 99-73 100-30 1-46-15-58-35L72 0H24l1-261h50v104c11-23 29-37 60-37zM114-30c31 0 40-27 40-66 0-37-7-63-39-63s-41 28-41 65c0 36 8 64 40 64" id="ao"/><g id="j"><use transform="matrix(0.0493827160493827,0,0,0.0493827160493827,0,0)" xlink:href="#am"/><use transform="matrix(0.0493827160493827,0,0,0.0493827160493827,11.851851851851848,0)" xlink:href="#an"/><use transform="matrix(0.0493827160493827,0,0,0.0493827160493827,22.666666666666657,0)" xlink:href="#ao"/><use transform="matrix(0.0493827160493827,0,0,0.0493827160493827,33.48148148148147,0)" xlink:href="#J"/><use transform="matrix(0.0493827160493827,0,0,0.0493827160493827,44.296296296296276,0)" xlink:href="#F"/><use transform="matrix(0.0493827160493827,0,0,0.0493827160493827,54.17283950617281,0)" xlink:href="#al"/></g><path fill="#3a414a" d="M220-157c-53 9-28 100-34 157h-49v-107c1-27-5-49-29-50C55-147 81-57 75 0H25l-1-190h47c2 12-1 28 3 38 10-53 101-56 108 0 13-22 24-43 59-42 82 1 51 116 57 194h-49v-107c-1-25-5-48-29-50" id="ap"/><path fill="#3a414a" d="M133-34C117-15 103 5 69 4 32 3 11-16 11-54c-1-60 55-63 116-61 1-26-3-47-28-47-18 1-26 9-28 27l-52-2c7-38 36-58 82-57s74 22 75 68l1 82c-1 14 12 18 25 15v27c-30 8-71 5-69-32zm-48 3c29 0 43-24 42-57-32 0-66-3-65 30 0 17 8 27 23 27" id="aq"/><path fill="#3a414a" d="M12 0v-35l95-120H19v-35h142v35L67-36h103V0H12" id="ar"/><path fill="#3a414a" d="M135-194c87-1 58 113 63 194h-50c-7-57 23-157-34-157-59 0-34 97-39 157H25l-1-190h47c2 12-1 28 3 38 12-26 28-41 61-42" id="as"/><g id="k"><use transform="matrix(0.0493827160493827,0,0,0.0493827160493827,0,0)" xlink:href="#w"/><use transform="matrix(0.0493827160493827,0,0,0.0493827160493827,12.79012345679012,0)" xlink:href="#ap"/><use transform="matrix(0.0493827160493827,0,0,0.0493827160493827,28.592592592592585,0)" xlink:href="#aq"/><use transform="matrix(0.0493827160493827,0,0,0.0493827160493827,38.469135802469125,0)" xlink:href="#ar"/><use transform="matrix(0.0493827160493827,0,0,0.0493827160493827,47.35802469135801,0)" xlink:href="#B"/><use transform="matrix(0.0493827160493827,0,0,0.0493827160493827,58.17283950617282,0)" xlink:href="#as"/></g><path fill="#3a414a" d="M24 0v-248h195v40H76v63h132v40H76v65h150V0H24" id="at"/><path fill="#3a414a" d="M137-138c1-29-70-34-71-4 15 46 118 7 119 86 1 83-164 76-172 9l43-7c4 19 20 25 44 25 33 8 57-30 24-41C81-84 22-81 20-136c-2-80 154-74 161-7" id="au"/><path fill="#3a414a" d="M115-3C79 11 28 4 28-45v-112H4v-33h27l15-45h31v45h36v33H77v99c-1 23 16 31 38 25v30" id="av"/><path fill="#3a414a" d="M25-224v-37h50v37H25zM25 0v-190h50V0H25" id="aw"/><path fill="#3a414a" d="M190-63c-7 42-38 67-86 67-59 0-84-38-90-98-12-110 154-137 174-36l-49 2c-2-19-15-32-35-32-30 0-35 28-38 64-6 74 65 87 74 30" id="ax"/><g id="l"><use transform="matrix(0.0493827160493827,0,0,0.0493827160493827,0,0)" xlink:href="#at"/><use transform="matrix(0.0493827160493827,0,0,0.0493827160493827,11.851851851851848,0)" xlink:href="#A"/><use transform="matrix(0.0493827160493827,0,0,0.0493827160493827,16.790123456790116,0)" xlink:href="#aq"/><use transform="matrix(0.0493827160493827,0,0,0.0493827160493827,26.666666666666657,0)" xlink:href="#au"/><use transform="matrix(0.0493827160493827,0,0,0.0493827160493827,36.543209876543195,0)" xlink:href="#av"/><use transform="matrix(0.0493827160493827,0,0,0.0493827160493827,42.41975308641973,0)" xlink:href="#aw"/><use transform="matrix(0.0493827160493827,0,0,0.0493827160493827,47.358024691358004,0)" xlink:href="#ax"/></g><path fill="#3a414a" d="M76-208v77h127v40H76V0H24v-248h183v40H76" id="ay"/><path fill="#3a414a" d="M185-48c-13 30-37 53-82 52C43 2 14-33 14-96s30-98 90-98c62 0 83 45 84 108H66c0 31 8 55 39 56 18 0 30-7 34-22zm-45-69c5-46-57-63-70-21-2 6-4 13-4 21h74" id="az"/><g id="m"><use transform="matrix(0.0493827160493827,0,0,0.0493827160493827,0,0)" xlink:href="#ay"/><use transform="matrix(0.0493827160493827,0,0,0.0493827160493827,10.814814814814811,0)" xlink:href="#aw"/><use transform="matrix(0.0493827160493827,0,0,0.0493827160493827,15.753086419753082,0)" xlink:href="#A"/><use transform="matrix(0.0493827160493827,0,0,0.0493827160493827,20.69135802469135,0)" xlink:href="#az"/></g><path fill="#3a414a" d="M123 10C108 53 80 86 19 72V37c35 8 53-11 59-39L3-190h52l48 148c12-52 28-100 44-148h51" id="aA"/><g id="n"><use transform="matrix(0.0493827160493827,0,0,0.0493827160493827,0,0)" xlink:href="#y"/><use transform="matrix(0.0493827160493827,0,0,0.0493827160493827,11.851851851851848,0)" xlink:href="#aA"/><use transform="matrix(0.0493827160493827,0,0,0.0493827160493827,21.728395061728385,0)" xlink:href="#au"/><use transform="matrix(0.0493827160493827,0,0,0.0493827160493827,31.604938271604922,0)" xlink:href="#av"/><use transform="matrix(0.0493827160493827,0,0,0.0493827160493827,37.48148148148147,0)" xlink:href="#az"/><use transform="matrix(0.0493827160493827,0,0,0.0493827160493827,47.358024691358004,0)" xlink:href="#ap"/></g><path fill="#3a414a" d="M24-248c120-7 223 5 221 122C244-46 201 0 124 0H24v-248zM76-40c74 7 117-18 117-86 0-67-45-88-117-82v168" id="aB"/><g id="o"><use transform="matrix(0.0493827160493827,0,0,0.0493827160493827,0,0)" xlink:href="#aB"/><use transform="matrix(0.0493827160493827,0,0,0.0493827160493827,12.79012345679012,0)" xlink:href="#aq"/><use transform="matrix(0.0493827160493827,0,0,0.0493827160493827,22.666666666666657,0)" xlink:href="#av"/><use transform="matrix(0.0493827160493827,0,0,0.0493827160493827,28.5432098765432,0)" xlink:href="#aq"/><use transform="matrix(0.0493827160493827,0,0,0.0493827160493827,38.41975308641974,0)" xlink:href="#y"/><use transform="matrix(0.0493827160493827,0,0,0.0493827160493827,50.27160493827159,0)" xlink:href="#aA"/><use transform="matrix(0.0493827160493827,0,0,0.0493827160493827,60.14814814814813,0)" xlink:href="#as"/><use transform="matrix(0.0493827160493827,0,0,0.0493827160493827,70.96296296296293,0)" xlink:href="#ax"/></g><path fill="#3a414a" d="M147 0H94L2-248h55l64 206c17-72 42-137 63-206h54" id="aC"/><path fill="#3a414a" d="M24-248c93 1 206-16 204 79-1 75-69 88-152 82V0H24v-248zm52 121c47 0 100 7 100-41 0-47-54-39-100-39v80" id="aD"/><g id="q"><use transform="matrix(0.049382716049382706,0,0,0.049382716049382706,0,0)" xlink:href="#aC"/><use transform="matrix(0.049382716049382706,0,0,0.049382716049382706,11.85185185185185,0)" xlink:href="#aD"/><use transform="matrix(0.049382716049382706,0,0,0.049382716049382706,23.7037037037037,0)" xlink:href="#z"/></g><path fill="#3a414a" d="M175 0L67-191c6 58 2 128 3 191H24v-248h59L193-55c-6-58-2-129-3-193h46V0h-61" id="aE"/><path fill="#3a414a" d="M136-208V0H84v-208H4v-40h212v40h-80" id="aF"/><g id="r"><use transform="matrix(0.049382716049382706,0,0,0.049382716049382706,0,0)" xlink:href="#aE"/><use transform="matrix(0.049382716049382706,0,0,0.049382716049382706,12.790123456790122,0)" xlink:href="#w"/><use transform="matrix(0.049382716049382706,0,0,0.049382716049382706,24.24691358024691,0)" xlink:href="#aF"/></g><path fill="#3a414a" d="M67-125c0 54 23 88 75 88 28 0 53-7 68-21v-34h-60v-39h108v91C232-14 192 4 140 4 58 4 20-42 15-125 8-236 126-280 215-234c19 10 29 26 37 47l-47 15c-11-23-29-39-63-39-53 1-75 33-75 86" id="aG"/><path fill="#3a414a" d="M231 0h-52l-39-155L100 0H48L-1-190h46L77-45c9-52 24-97 36-145h53l37 145 32-145h46" id="aH"/><g id="s"><use transform="matrix(0.049382716049382706,0,0,0.049382716049382706,0,0)" xlink:href="#aG"/><use transform="matrix(0.049382716049382706,0,0,0.049382716049382706,13.827160493827158,0)" xlink:href="#aq"/><use transform="matrix(0.049382716049382706,0,0,0.049382716049382706,23.7037037037037,0)" xlink:href="#av"/><use transform="matrix(0.049382716049382706,0,0,0.049382716049382706,29.58024691358024,0)" xlink:href="#az"/><use transform="matrix(0.049382716049382706,0,0,0.049382716049382706,39.456790123456784,0)" xlink:href="#aH"/><use transform="matrix(0.049382716049382706,0,0,0.049382716049382706,53.28395061728394,0)" xlink:href="#aq"/><use transform="matrix(0.049382716049382706,0,0,0.049382716049382706,63.16049382716048,0)" xlink:href="#aA"/></g><path fill="#3a414a" d="M24 0v-248h52V0H24" id="aI"/><path fill="#3a414a" d="M135-150c-39-12-60 13-60 57V0H25l-1-190h47c2 13-1 29 3 40 6-28 27-53 61-41v41" id="aJ"/><g id="t"><use transform="matrix(0.049382716049382706,0,0,0.049382716049382706,0,0)" xlink:href="#aI"/><use transform="matrix(0.049382716049382706,0,0,0.049382716049382706,4.93827160493827,0)" xlink:href="#as"/><use transform="matrix(0.049382716049382706,0,0,0.049382716049382706,15.753086419753084,0)" xlink:href="#av"/><use transform="matrix(0.049382716049382706,0,0,0.049382716049382706,21.629629629629626,0)" xlink:href="#az"/><use transform="matrix(0.049382716049382706,0,0,0.049382716049382706,31.506172839506167,0)" xlink:href="#aJ"/><use transform="matrix(0.049382716049382706,0,0,0.049382716049382706,38.419753086419746,0)" xlink:href="#as"/><use transform="matrix(0.049382716049382706,0,0,0.049382716049382706,49.234567901234556,0)" xlink:href="#az"/><use transform="matrix(0.049382716049382706,0,0,0.049382716049382706,59.1111111111111,0)" xlink:href="#av"/></g><path fill="#3a414a" d="M195-6C206 82 75 100 31 46c-4-6-6-13-8-21l49-6c3 16 16 24 34 25 40 0 42-37 40-79-11 22-30 35-61 35-53 0-70-43-70-97 0-56 18-96 73-97 30 0 46 14 59 34l2-30h47zm-90-29c32 0 41-27 41-63 0-35-9-62-40-62-32 0-39 29-40 63 0 36 9 62 39 62" id="aK"/><g id="u"><use transform="matrix(0.049382716049382706,0,0,0.049382716049382706,0,0)" xlink:href="#aK"/><use transform="matrix(0.049382716049382706,0,0,0.049382716049382706,10.814814814814813,0)" xlink:href="#aq"/><use transform="matrix(0.049382716049382706,0,0,0.049382716049382706,20.691358024691354,0)" xlink:href="#av"/><use transform="matrix(0.049382716049382706,0,0,0.049382716049382706,26.567901234567895,0)" xlink:href="#az"/><use transform="matrix(0.049382716049382706,0,0,0.049382716049382706,36.444444444444436,0)" xlink:href="#aH"/><use transform="matrix(0.049382716049382706,0,0,0.049382716049382706,50.271604938271594,0)" xlink:href="#aq"/><use transform="matrix(0.049382716049382706,0,0,0.049382716049382706,60.14814814814814,0)" xlink:href="#aA"/></g><path fill="#3a414a" d="M24 0v-248h52v208h133V0H24" id="aL"/><path fill="#3a414a" d="M23 0v-37h61v-169l-59 37v-38l62-41h46v211h57V0H23" id="aM"/><path fill="#3a414a" d="M24 0v-54h51V0H24" id="aN"/><path fill="#3a414a" d="M182-182c0 78-84 86-111 141h115V0H12c-6-101 99-100 120-180 1-22-12-31-33-32-23 0-32 14-35 34l-49-3c5-45 32-70 84-70 51 0 83 22 83 69" id="aO"/><g id="v"><use transform="matrix(0.049382716049382706,0,0,0.049382716049382706,0,0)" xlink:href="#aF"/><use transform="matrix(0.049382716049382706,0,0,0.049382716049382706,10.814814814814813,0)" xlink:href="#aL"/><use transform="matrix(0.049382716049382706,0,0,0.049382716049382706,21.629629629629626,0)" xlink:href="#y"/><use transform="matrix(0.049382716049382706,0,0,0.049382716049382706,33.481481481481474,0)" xlink:href="#aM"/><use transform="matrix(0.049382716049382706,0,0,0.049382716049382706,43.35802469135801,0)" xlink:href="#aN"/><use transform="matrix(0.049382716049382706,0,0,0.049382716049382706,48.29629629629628,0)" xlink:href="#aO"/></g></defs></g></svg>